<svg width="43" height="28" viewBox="0 0 43 28" fill="none" xmlns="http://www.w3.org/2000/svg">
<path d="M33.85 19.3643C36.168 19.3643 38.053 21.2552 38.053 23.5804C38.053 25.9056 36.168 27.7965 33.85 27.7965C31.5321 27.7965 29.647 25.9056 29.647 23.5804C29.647 21.2552 31.5321 19.3643 33.85 19.3643ZM33.85 26.3911C35.3953 26.3911 36.652 25.1305 36.652 23.5804C36.652 22.0303 35.3953 20.7697 33.85 20.7697C32.3048 20.7697 31.0481 22.0303 31.0481 23.5804C31.0481 25.1305 32.3047 26.3911 33.85 26.3911Z" fill="#263238"/>
<path d="M10.3708 19.3643C12.6887 19.3643 14.5737 21.2552 14.5737 23.5804C14.5737 25.9056 12.6887 27.7965 10.3708 27.7965C8.05281 27.7965 6.16779 25.9056 6.16779 23.5804C6.16771 21.2552 8.05346 19.3643 10.3708 19.3643ZM10.3708 26.3911C11.9161 26.3911 13.1727 25.1305 13.1727 23.5804C13.1727 22.0303 11.916 20.7697 10.3708 20.7697C8.82551 20.7697 7.56881 22.0303 7.56881 23.5804C7.56881 25.1305 8.82617 26.3911 10.3708 26.3911Z" fill="#263238"/>
<path d="M1.62585 17.2565H2.32632V1.09463C2.32632 0.706038 2.64015 0.391968 3.02679 0.391968H24.7422C26.2875 0.391968 27.5441 1.65261 27.5441 3.2027V17.9592H28.9452V7.41884C28.9452 7.03025 29.259 6.71618 29.6456 6.71618H38.0516C38.2855 6.71618 38.5041 6.83353 38.6344 7.02885L42.8374 13.3531C42.9138 13.4683 42.9551 13.6046 42.9551 13.7431V21.4727C42.9551 21.8613 42.6413 22.1753 42.2546 22.1753H40.1531C39.8561 22.1753 39.5913 21.987 39.4926 21.7066C38.7031 19.4657 36.5792 17.9592 34.2073 17.9592C32.7349 17.9592 30.9633 18.496 30.0863 19.2079C29.9594 19.3112 29.8033 19.3646 29.6457 19.3646H27.5442V21.4727C27.5442 21.8613 27.2304 22.1753 26.8438 22.1753H16.3181C16.0211 22.1753 15.7563 21.987 15.6575 21.7066C14.8681 19.4657 12.7442 17.9592 10.3723 17.9592C8.01371 17.9592 5.89967 19.4496 5.09971 21.6715C5.01426 21.9625 4.74599 22.1753 4.42797 22.1753H1.62602C1.23938 22.1753 0.925552 21.8613 0.925552 21.4727V17.9592C0.925388 17.5706 1.23922 17.2565 1.62585 17.2565ZM37.6768 8.12159H33.1481V13.0404H40.946L37.6768 8.12159ZM30.3462 17.4139C31.5896 16.8272 33.0984 16.5538 34.2073 16.5538C37.003 16.5538 39.5233 18.229 40.6295 20.7699H41.5541V17.2565H40.8536C40.467 17.2565 40.1531 16.9425 40.1531 16.5539C40.1531 16.1653 40.467 15.8512 40.8536 15.8512H41.5541V14.4458H32.4477C32.061 14.4458 31.7472 14.1317 31.7472 13.7431V8.12159H30.3462V17.4139ZM2.3264 20.77H3.95087C5.05694 18.229 7.57732 16.5539 10.3723 16.5539C13.168 16.5539 15.6883 18.2291 16.7945 20.77H26.1432V3.2027C26.1432 2.42766 25.5149 1.79729 24.7422 1.79729H3.72734V14.4457H4.42781C4.81445 14.4457 5.12828 14.7598 5.12828 15.1484C5.12828 15.537 4.81445 15.851 4.42781 15.851H3.72734V17.9591C3.72734 18.3477 3.41351 18.6618 3.02687 18.6618H2.3264V20.77Z" fill="#263238"/>
</svg>
