<svg width="60" height="79" viewBox="0 0 60 79" fill="none" xmlns="http://www.w3.org/2000/svg">
<path d="M39.9849 29.8631C40.4855 29.8631 40.8918 29.3183 40.8918 28.647V14.0549C40.8918 13.3836 40.4855 12.8389 39.9849 12.8389H10.9645C10.4639 12.8389 10.0576 13.3836 10.0576 14.0549V28.647C10.0576 29.3183 10.4639 29.8631 10.9645 29.8631H39.9849ZM11.8714 15.2709H39.078V27.431H11.8714V15.2709Z" fill="#038880"/>
<path d="M9.15112 40.8073C9.15112 41.4786 9.55741 42.0233 10.058 42.0233H39.0784C39.579 42.0233 39.9853 41.4786 39.9853 40.8073C39.9853 40.1361 39.579 39.5913 39.0784 39.5913H10.058C9.55741 39.5913 9.15112 40.1361 9.15112 40.8073Z" fill="#038880"/>
<path d="M10.058 54.1835H39.0784C39.579 54.1835 39.9853 53.6387 39.9853 52.9675C39.9853 52.2962 39.579 51.7515 39.0784 51.7515H10.058C9.55741 51.7515 9.15112 52.2962 9.15112 52.9675C9.15112 53.6387 9.55741 54.1835 10.058 54.1835Z" fill="#038880"/>
<path d="M10.058 63.9115H39.0784C39.579 63.9115 39.9853 63.3667 39.9853 62.6955C39.9853 62.0243 39.579 61.4795 39.0784 61.4795H10.058C9.55741 61.4795 9.15112 62.0243 9.15112 62.6955C9.15112 63.3667 9.55741 63.9115 10.058 63.9115Z" fill="#038880"/>
<path d="M56.3103 17.7027H52.4942C51.9936 17.7027 51.5873 18.2474 51.5873 18.9187C51.5873 19.5899 51.9936 20.1347 52.4942 20.1347H56.3103C56.8109 20.1347 57.2172 20.6819 57.2172 21.3507V74.8553C57.2172 75.5241 56.8109 76.0713 56.3103 76.0713H48.1484V4.32651C48.1484 2.31522 46.9277 0.678467 45.4277 0.678467H3.7109C2.2109 0.678467 0.990234 2.31522 0.990234 4.32651V73.2964C0.990234 76.1686 2.73146 78.5033 4.87352 78.5033H39.0795C39.5801 78.5033 39.9864 77.9586 39.9864 77.2873C39.9864 76.6161 39.5801 76.0713 39.0795 76.0713H4.87352C3.73266 76.0713 2.80401 74.8261 2.80401 73.2964V4.32651C2.80401 3.6577 3.21029 3.11049 3.7109 3.11049H45.4277C45.9283 3.11049 46.3346 3.6577 46.3346 4.32651V77.2873C46.3346 77.9586 46.7409 78.5033 47.2415 78.5033H56.3103C57.8103 78.5033 59.031 76.8666 59.031 74.8553V21.3507C59.031 19.3394 57.8103 17.7027 56.3103 17.7027Z" fill="#038880"/>
</svg>
