<svg width="71" height="71" viewBox="0 0 71 71" fill="none" xmlns="http://www.w3.org/2000/svg">
<path d="M12.9625 59.6376H19.495C20.0971 59.6376 20.5838 59.1509 20.5838 58.5488V53.1051C20.5838 52.503 20.0971 52.0164 19.495 52.0164H12.9625C12.3604 52.0164 11.8738 52.503 11.8738 53.1051V58.5488C11.8738 59.1509 12.3604 59.6376 12.9625 59.6376ZM14.0513 54.1939H18.4063V57.4601H14.0513V54.1939Z" fill="#038880"/>
<path d="M26.0267 59.6376H32.5592C33.1613 59.6376 33.648 59.1509 33.648 58.5488V53.1051C33.648 52.503 33.1613 52.0164 32.5592 52.0164H26.0267C25.4247 52.0164 24.938 52.503 24.938 53.1051V58.5488C24.938 59.1509 25.4247 59.6376 26.0267 59.6376ZM27.1155 54.1939H31.4705V57.4601H27.1155V54.1939Z" fill="#038880"/>
<path d="M39.0895 59.6376H45.622C46.224 59.6376 46.7107 59.1509 46.7107 58.5488V53.1051C46.7107 52.503 46.224 52.0164 45.622 52.0164H39.0895C38.4874 52.0164 38.0007 52.503 38.0007 53.1051V58.5488C38.0007 59.1509 38.4874 59.6376 39.0895 59.6376ZM40.1782 54.1939H44.5332V57.4601H40.1782V54.1939Z" fill="#038880"/>
<path d="M12.9625 47.6615H19.495C20.0971 47.6615 20.5838 47.1748 20.5838 46.5728V41.129C20.5838 40.527 20.0971 40.0403 19.495 40.0403H12.9625C12.3604 40.0403 11.8738 40.527 11.8738 41.129V46.5728C11.8738 47.1748 12.3604 47.6615 12.9625 47.6615ZM14.0513 42.2178H18.4063V45.484H14.0513V42.2178Z" fill="#038880"/>
<path d="M26.0267 47.6615H32.5592C33.1613 47.6615 33.648 47.1748 33.648 46.5728V41.129C33.648 40.527 33.1613 40.0403 32.5592 40.0403H26.0267C25.4247 40.0403 24.938 40.527 24.938 41.129V46.5728C24.938 47.1748 25.4247 47.6615 26.0267 47.6615ZM27.1155 42.2178H31.4705V45.484H27.1155V42.2178Z" fill="#038880"/>
<path d="M39.0895 47.6615H45.622C46.224 47.6615 46.7107 47.1748 46.7107 46.5728V41.129C46.7107 40.527 46.224 40.0403 45.622 40.0403H39.0895C38.4874 40.0403 38.0007 40.527 38.0007 41.129V46.5728C38.0007 47.1748 38.4874 47.6615 39.0895 47.6615ZM40.1782 42.2178H44.5332V45.484H40.1782V42.2178Z" fill="#038880"/>
<path d="M52.1571 47.6615H58.6896C59.2917 47.6615 59.7783 47.1748 59.7783 46.5728V41.129C59.7783 40.527 59.2917 40.0403 58.6896 40.0403H52.1571C51.555 40.0403 51.0684 40.527 51.0684 41.129V46.5728C51.0684 47.1748 51.555 47.6615 52.1571 47.6615ZM53.2459 42.2178H57.6008V45.484H53.2459V42.2178Z" fill="#038880"/>
<path d="M12.9625 35.685H19.495C20.0971 35.685 20.5838 35.1983 20.5838 34.5962V29.1525C20.5838 28.5504 20.0971 28.0637 19.495 28.0637H12.9625C12.3604 28.0637 11.8738 28.5504 11.8738 29.1525V34.5962C11.8738 35.1983 12.3604 35.685 12.9625 35.685ZM14.0513 30.2412H18.4063V33.5075H14.0513V30.2412Z" fill="#038880"/>
<path d="M26.0267 35.685H32.5592C33.1613 35.685 33.648 35.1983 33.648 34.5962V29.1525C33.648 28.5504 33.1613 28.0637 32.5592 28.0637H26.0267C25.4247 28.0637 24.938 28.5504 24.938 29.1525V34.5962C24.938 35.1983 25.4247 35.685 26.0267 35.685ZM27.1155 30.2412H31.4705V33.5075H27.1155V30.2412Z" fill="#038880"/>
<path d="M39.0895 35.685H45.622C46.224 35.685 46.7107 35.1983 46.7107 34.5962V29.1525C46.7107 28.5504 46.224 28.0637 45.622 28.0637H39.0895C38.4874 28.0637 38.0007 28.5504 38.0007 29.1525V34.5962C38.0007 35.1983 38.4874 35.685 39.0895 35.685ZM40.1782 30.2412H44.5332V33.5075H40.1782V30.2412Z" fill="#038880"/>
<path d="M52.1571 35.685H58.6896C59.2917 35.685 59.7783 35.1983 59.7783 34.5962V29.1525C59.7783 28.5504 59.2917 28.0637 58.6896 28.0637H52.1571C51.555 28.0637 51.0684 28.5504 51.0684 29.1525V34.5962C51.0684 35.1983 51.555 35.685 52.1571 35.685ZM53.2459 30.2412H57.6008V33.5075H53.2459V30.2412Z" fill="#038880"/>
<path d="M66.3094 5.19996H58.6882V4.11121C58.6882 2.30716 57.226 0.844971 55.422 0.844971C53.6179 0.844971 52.1557 2.30716 52.1557 4.11121V5.19996H19.4933V4.11121C19.4933 2.30716 18.0311 0.844971 16.2271 0.844971C14.423 0.844971 12.9608 2.30716 12.9608 4.11121V5.19996H5.33961C2.93239 5.19996 0.984619 7.14773 0.984619 9.55495V66.1698C0.984619 68.577 2.93239 70.5248 5.33961 70.5248H66.3094C68.7167 70.5248 70.6644 68.577 70.6644 66.1698V9.55495C70.6644 7.14773 68.7167 5.19996 66.3094 5.19996ZM54.3332 4.11121C54.3332 3.50913 54.8199 3.02246 55.422 3.02246C56.024 3.02246 56.5107 3.50913 56.5107 4.11121V7.37745V11.7324C56.5107 12.3345 56.024 12.8212 55.422 12.8212C54.8199 12.8212 54.3332 12.3345 54.3332 11.7324V7.37745V4.11121ZM15.1383 4.11121C15.1383 3.50913 15.625 3.02246 16.2271 3.02246C16.8292 3.02246 17.3158 3.50913 17.3158 4.11121V7.37745V11.7324C17.3158 12.3345 16.8292 12.8212 16.2271 12.8212C15.625 12.8212 15.1383 12.3345 15.1383 11.7324V7.37745V4.11121ZM68.4869 66.1698C68.4869 67.3718 67.5114 68.3473 66.3094 68.3473H5.33961C4.13763 68.3473 3.16211 67.3718 3.16211 66.1698V19.3537H68.4869V66.1698ZM68.4869 17.1762H3.16211V9.55495C3.16211 8.35297 4.13763 7.37745 5.33961 7.37745H12.9608V11.7324C12.9608 13.5365 14.423 14.9987 16.2271 14.9987C18.0311 14.9987 19.4933 13.5365 19.4933 11.7324V7.37745H52.1557V11.7324C52.1557 13.5365 53.6179 14.9987 55.422 14.9987C57.226 14.9987 58.6882 13.5365 58.6882 11.7324V7.37745H66.3094C67.5114 7.37745 68.4869 8.35297 68.4869 9.55495V17.1762Z" fill="#038880"/>
</svg>
