<svg width="55" height="67" viewBox="0 0 55 67" fill="none" xmlns="http://www.w3.org/2000/svg">
<path d="M51.3678 0H3.63256C1.74787 0 0.2229 1.84697 0.2229 4.12962V12.3888C0.2229 14.6715 1.74787 16.5185 3.63256 16.5185V61.9442C3.63256 64.2269 5.15753 66.0739 7.04222 66.0739H47.9582C49.8428 66.0739 51.3678 64.2269 51.3678 61.9442V16.5185C53.2525 16.5185 54.7775 14.6715 54.7775 12.3888V4.12962C54.7775 1.84697 53.2525 0 51.3678 0ZM49.663 52.2262L39.9335 64.009H15.0669L5.33739 52.2262V16.5185H49.663V52.2262ZM5.33739 61.9442V55.1448L12.6562 64.009H7.04222C6.10116 64.009 5.33739 63.084 5.33739 61.9442ZM47.9582 64.009H42.3441L49.663 55.1448V61.9442C49.663 63.084 48.8992 64.009 47.9582 64.009ZM53.0726 12.3888C53.0726 13.5286 52.3089 14.4537 51.3678 14.4537H3.63256C2.69149 14.4537 1.92773 13.5286 1.92773 12.3888V4.12962C1.92773 2.98984 2.69149 2.06481 3.63256 2.06481H51.3678C52.3089 2.06481 53.0726 2.98984 53.0726 4.12962V12.3888Z" fill="#00A79D"/>
<path d="M16.8292 37.5637H35.7885C37.2164 37.5637 38.3738 36.1406 38.3738 34.3871C38.3738 32.6336 37.2164 31.2104 35.7885 31.2104H16.8292C15.4013 31.2104 14.2439 32.6336 14.2439 34.3871C14.2439 36.1406 15.4013 37.5637 16.8292 37.5637ZM16.8292 33.3282H35.7885C36.265 33.3282 36.6502 33.8015 36.6502 34.3871C36.6502 34.9726 36.265 35.446 35.7885 35.446H16.8292C16.3527 35.446 15.9675 34.9726 15.9675 34.3871C15.9675 33.8015 16.3527 33.3282 16.8292 33.3282Z" fill="#00A79D"/>
</svg>
