<svg width="98" height="67" viewBox="0 0 98 67" fill="none" xmlns="http://www.w3.org/2000/svg">
<path d="M8.63623 20.4693V5.1424C8.63623 2.86408 10.039 1 11.7535 1H44.6405C46.355 1 47.7578 2.86408 47.7578 5.1424V40.3528" stroke="#00A79D" stroke-width="1.84847"/>
<path d="M47.7585 40.5602V5.34979C47.7585 3.07148 49.1613 1.2074 50.8758 1.2074H85.3214C87.0359 1.2074 88.4387 3.07148 88.4387 5.34979V20.6767" stroke="#00A79D" stroke-width="1.84847"/>
<path fill-rule="evenodd" clip-rule="evenodd" d="M93.1148 21.9192H88.2831C86.5686 21.9192 85.1658 23.7833 85.1658 26.0616V40.56H11.9104V26.0616C11.9104 23.7833 10.5076 21.9192 8.79313 21.9192H4.11725C2.40276 21.9192 1 23.7833 1 26.0616V53.1943C1 55.4726 2.40276 57.3367 4.11725 57.3367H8.79313V61.4791C8.79313 63.7574 10.1959 65.6215 11.9104 65.6215H16.7421C18.4566 65.6215 19.8594 63.7574 19.8594 61.4791V57.3367H75.9699V61.4791C75.9699 63.7574 77.3727 65.6215 79.0872 65.6215H85.4776C87.1921 65.6215 88.5948 63.7574 88.5948 61.4791V57.3367H93.2707C94.9852 57.3367 96.388 55.4726 96.388 53.1943V26.0616C96.0762 23.7833 94.6735 21.9192 93.1148 21.9192Z" stroke="#00A79D" stroke-width="1.84847"/>
<path d="M16.585 51.1232H78.93" stroke="#00A79D" stroke-width="1.84847"/>
</svg>
