<svg width="35" height="36" viewBox="0 0 35 36" fill="none" xmlns="http://www.w3.org/2000/svg">
<g clip-path="url(#clip0_252_13)">
<path d="M0.956543 18.6279H4.19275L5.41264 22.313H5.67373L6.898 18.6279H10.1331V26.2179H7.74709V22.424L7.90616 21.4486H7.79646L6.73564 24.4835H4.3573L3.29648 21.4486H3.18678L3.34585 22.424V26.2179H0.956543V18.6279Z" fill="#00A79D"/>
<path d="M15.2778 26.4353C14.7026 26.4415 14.1317 26.3346 13.5961 26.1203C13.1043 25.9243 12.6541 25.6335 12.2698 25.2638C11.8994 24.9029 11.6036 24.4699 11.3998 23.9902C11.1935 23.4949 11.0872 22.9622 11.0872 22.424C11.0872 21.8857 11.1935 21.353 11.3998 20.8578C11.6036 20.3781 11.8994 19.945 12.2698 19.5842C12.6541 19.2144 13.1043 18.9236 13.5961 18.7277C14.6792 18.3076 15.8753 18.3076 16.9584 18.7277C17.452 18.9226 17.9039 19.2134 18.2891 19.5842C18.6652 19.9506 18.9645 20.3913 19.169 20.8794C19.3736 21.3675 19.479 21.893 19.479 22.424C19.479 22.955 19.3736 23.4804 19.169 23.9686C18.9645 24.4567 18.6652 24.8973 18.2891 25.2638C17.9052 25.634 17.4549 25.9249 16.9628 26.1203C16.4262 26.335 15.8541 26.442 15.2778 26.4353ZM15.2778 24.2671C15.5073 24.2695 15.7348 24.2233 15.9459 24.1314C16.1478 24.0433 16.3299 23.9139 16.4812 23.7514C16.6367 23.5836 16.7593 23.3868 16.8422 23.1718C17.0192 22.6916 17.0192 22.162 16.8422 21.6818C16.7601 21.4643 16.6376 21.2652 16.4812 21.0955C16.3296 20.9336 16.1475 20.8047 15.9459 20.7165C15.5176 20.5362 15.0369 20.5362 14.6086 20.7165C14.407 20.8047 14.2249 20.9336 14.0733 21.0955C13.9173 21.2655 13.7948 21.4645 13.7124 21.6818C13.5369 22.1623 13.5369 22.6913 13.7124 23.1718C13.7957 23.3866 13.9181 23.5833 14.0733 23.7514C14.2246 23.9139 14.4068 24.0433 14.6086 24.1314C14.8201 24.2234 15.048 24.2696 15.2778 24.2671Z" fill="#00A79D"/>
<path d="M19.574 18.6279H21.96L23.2336 24.0474H23.7108L24.9812 18.6279H27.3683L25.4606 26.2179H21.4828L19.574 18.6279Z" fill="#00A79D"/>
<path d="M28.0066 18.6279H33.9469V20.6874H30.3926V21.554H33.2087V23.2918H30.3926V24.1584H33.9469V26.2179H28.0066V18.6279Z" fill="#00A79D"/>
<path d="M4.51017 35.7204C3.93537 35.7265 3.3648 35.6195 2.82953 35.4053C2.33781 35.2095 1.88782 34.9182 1.50434 34.5477C1.12831 34.1812 0.828963 33.7406 0.624436 33.2525C0.419909 32.7644 0.314453 32.2389 0.314453 31.7079C0.314453 31.1769 0.419909 30.6514 0.624436 30.1633C0.828963 29.6752 1.12831 29.2346 1.50434 28.8681C1.88823 28.4979 2.33861 28.207 2.83063 28.0116C3.91373 27.5915 5.1099 27.5915 6.193 28.0116C6.68474 28.2076 7.13502 28.4984 7.51929 28.8681C7.89513 29.2343 8.19387 29.6751 8.39721 30.1634C8.60056 30.6517 8.70423 31.1772 8.70188 31.7079C8.70614 32.2478 8.59925 32.7825 8.38813 33.2775C8.18446 33.7562 7.88861 34.1882 7.5182 34.5477C7.13392 34.9175 6.68365 35.2083 6.1919 35.4042C5.65633 35.6188 5.08539 35.7261 4.51017 35.7204ZM4.51017 33.5521C4.73998 33.5544 4.96778 33.5082 5.17935 33.4165C5.38101 33.3284 5.56312 33.1995 5.7147 33.0375C5.86987 32.8691 5.99235 32.672 6.07562 32.4568C6.25112 31.9763 6.25112 31.4473 6.07562 30.9669C5.99318 30.7499 5.87064 30.5512 5.7147 30.3816C5.56283 30.2197 5.38081 30.0905 5.17935 30.0016C4.75106 29.8212 4.27038 29.8212 3.84208 30.0016C3.64028 30.0899 3.45815 30.2192 3.30674 30.3816C3.15042 30.5509 3.02783 30.7497 2.94582 30.9669C2.76882 31.447 2.76882 31.9766 2.94582 32.4568C3.02868 32.6722 3.1512 32.8693 3.30674 33.0375C3.45789 33.2 3.64011 33.329 3.84208 33.4165C4.05323 33.5083 4.2807 33.5545 4.51017 33.5521Z" fill="#00A79D"/>
<path d="M13.1558 35.7205C12.6474 35.7288 12.1413 35.648 11.6595 35.4817C11.2472 35.3377 10.8682 35.1088 10.546 34.809C10.241 34.5183 10.0021 34.1628 9.84611 33.7675C9.67955 33.3381 9.59682 32.8795 9.60258 32.4177V27.9153H11.9886V32.3056C11.9799 32.4717 12.0041 32.638 12.0597 32.7944C12.1153 32.9508 12.2012 33.0942 12.3122 33.2159C12.5414 33.4338 12.8428 33.5549 13.1558 33.5549C13.4688 33.5549 13.7702 33.4338 13.9994 33.2159C14.1103 33.095 14.1965 32.9527 14.2531 32.7974C14.3096 32.642 14.3352 32.4767 14.3285 32.3112V27.9153H16.7091V32.3997C16.7168 32.8657 16.6355 33.3288 16.4699 33.763C16.3167 34.1597 16.0796 34.5169 15.7755 34.809C15.4529 35.111 15.0716 35.3402 14.6565 35.4817C14.1732 35.6476 13.6657 35.7284 13.1558 35.7205Z" fill="#00A79D"/>
<path d="M19.6804 30.0835H17.3997V27.9153H24.3471V30.0835H22.0664V35.503H19.6804V30.0835Z" fill="#00A79D"/>
<path d="M29.5883 29.0466L26.1294 30.1755L27.9625 31.4088C27.1189 32.4245 26.1393 33.5983 25.491 34.3528L27.8112 35.7161L27.7848 35.6903L30.2937 32.9783L32.2497 34.2956L32.6457 31.1038L33.0407 27.9109L29.5883 29.0466Z" fill="#00A79D"/>
<path d="M21.8181 12.8184C21.8181 12.8385 21.8181 12.8563 21.8181 12.8753C21.8125 12.8563 21.8147 12.8385 21.8181 12.8184Z" fill="#00A79D"/>
<path d="M34.1346 0.965012L33.4544 5.59521L32.7699 10.2198L30.4661 8.24215L28.452 10.6447C28.0863 11.1612 27.7207 11.6795 27.355 12.1997C26.9249 12.8066 26.4971 13.4131 26.0715 14.0192C25.6743 14.5462 25.3299 14.9789 25.0754 15.2928C23.9882 16.6314 23.6087 16.9465 23.4298 17.0866C23.0386 17.3998 22.6117 17.6633 22.1584 17.8714C21.893 17.9907 21.6195 18.0904 21.34 18.1696C20.5615 18.3837 19.7497 18.4416 18.9496 18.34C17.201 18.1012 15.6023 17.2046 14.4661 15.8254C13.9547 15.188 13.5681 14.4561 13.3274 13.6695C13.0994 12.8986 13.0248 12.089 13.108 11.2882C13.1211 11.1503 13.1387 11.0135 13.1617 10.8768V6.48313L13.4195 4.91357H13.2429L11.5294 9.81283H7.67883L5.96639 4.91357H5.79525L6.05195 6.48313V12.6066H2.19922V0.354004H7.42213L9.39018 6.30375H9.81802L11.7927 0.354004H17.0156V6.02123C17.8861 5.70519 18.82 5.6158 19.7329 5.76113C19.7812 5.76113 19.8294 5.7701 19.8788 5.77683C20.7466 5.8863 21.5851 6.16813 22.3471 6.60645C23.0471 6.99277 23.675 7.50206 24.2021 8.11098L24.1166 8.22309L21.0318 9.73211C20.9438 9.66855 20.8526 9.60979 20.7586 9.5561C20.4613 9.38407 20.1321 9.27728 19.7921 9.24253C19.4521 9.20778 19.1088 9.24585 18.784 9.3543C18.4512 9.46882 18.1429 9.64728 17.8756 9.8801C17.5828 10.1351 17.3388 10.4434 17.156 10.7893C16.965 11.134 16.8396 11.5125 16.7863 11.9048C16.7382 12.2576 16.7572 12.6166 16.8422 12.962C16.9259 13.2954 17.0752 13.6079 17.281 13.8802C17.4973 14.1595 17.766 14.3917 18.0714 14.5633C18.3768 14.7348 18.7127 14.8422 19.0593 14.8791C19.4704 14.897 19.8819 14.8551 20.2814 14.7547C20.5358 14.669 20.7756 14.5434 20.9923 14.3825C21.3451 14.141 21.6726 13.863 21.9697 13.5529C22.3405 13.1672 22.684 12.7551 22.9976 12.3196C23.353 11.8376 23.8588 11.1548 24.5707 10.2052L27.7203 5.87997L25.5548 4.02453L29.8507 2.49421L34.1346 0.965012Z" fill="#00A79D"/>
<path d="M24.2351 8.16088L24.159 8.19869L24.1111 8.22204L24.196 8.11084L24.2101 8.12752L24.2351 8.16088Z" fill="#00A79D"/>
</g>
<defs>
<clipPath id="clip0_252_13">
<rect width="33.8134" height="35.3621" fill="white" transform="translate(0.321045 0.357178)"/>
</clipPath>
</defs>
</svg>
