<svg width="245" height="57" viewBox="0 0 245 57" fill="none" xmlns="http://www.w3.org/2000/svg">
<path d="M162.105 42.9986L162.252 43.2598L162.325 43.3903L162.391 43.528L162.515 43.7997L162.616 44.0821L162.666 44.2232L162.705 44.3679C162.728 44.4667 162.759 44.562 162.779 44.6608C162.841 44.9633 162.871 45.2706 162.868 45.5784C162.934 45.4337 162.996 45.2855 163.05 45.1337C163.177 44.7762 163.276 44.4105 163.344 44.0397C163.328 44.4191 163.279 44.7967 163.197 45.169C163.166 45.3137 163.127 45.4584 163.085 45.6066C163.43 45.2521 163.811 44.9283 164.223 44.6396C164.436 44.4985 164.646 44.3538 164.87 44.2303C164.983 44.1667 165.091 44.0997 165.207 44.0432L165.552 43.8738C165.666 43.8153 165.784 43.7623 165.904 43.715L166.261 43.5633C166.501 43.4715 166.745 43.3903 166.985 43.3021C166.753 43.4045 166.516 43.5033 166.284 43.6091L165.943 43.7821C165.831 43.8385 165.719 43.895 165.61 43.9621L165.285 44.1526C165.172 44.2162 165.076 44.2903 164.971 44.3608C164.758 44.495 164.584 44.6502 164.367 44.7985C163.986 45.1095 163.64 45.4534 163.333 45.8254C163.255 45.9172 163.181 46.0089 163.112 46.1078C163.042 46.2066 162.976 46.3019 162.914 46.4007C162.824 46.5437 162.743 46.691 162.67 46.8418C162.647 46.9159 162.62 46.9865 162.589 47.0641L162.174 46.8771C162.213 46.7959 162.252 46.7218 162.294 46.6477C162.337 46.5736 162.364 46.4713 162.391 46.383C162.449 46.2036 162.493 46.0209 162.523 45.836C162.584 45.4598 162.594 45.0782 162.554 44.6996C162.554 44.6044 162.527 44.5091 162.511 44.4138L162.488 44.2726L162.453 44.1315L162.384 43.8527L162.287 43.5774L162.24 43.4362L162.178 43.3021L162.058 43.0339C161.969 42.8575 161.865 42.681 161.768 42.5116C161.876 42.6669 162 42.8292 162.105 42.9986Z" fill="#475D05"/>
<path d="M154.482 41.2904C155.666 41.2904 156.838 41.5028 157.932 41.9155C159.025 42.3282 160.019 42.9331 160.856 43.6957C161.693 44.4583 162.357 45.3636 162.81 46.36C163.262 47.3563 163.496 48.4242 163.496 49.5026H145.469C145.469 47.3246 146.419 45.2358 148.109 43.6957C149.799 42.1556 152.092 41.2904 154.482 41.2904Z" fill="#62820F"/>
<path d="M167.101 44.3362C168.605 44.3371 170.047 44.8822 171.111 45.8517C172.174 46.8212 172.771 48.1357 172.771 49.5063H161.426C161.426 48.1351 162.024 46.8201 163.088 45.8505C164.152 44.8809 165.596 44.3362 167.101 44.3362Z" fill="#62820F"/>
<path d="M167.101 44.3362C167.4 44.337 167.697 44.3595 167.992 44.4032C166.659 44.5963 165.445 45.2162 164.568 46.1515C163.691 47.0868 163.209 48.2763 163.208 49.5063H161.427C161.427 48.1351 162.024 46.8201 163.089 45.8505C164.153 44.8809 165.596 44.3362 167.101 44.3362Z" fill="#475D05"/>
<path d="M154.482 41.2904C154.757 41.2904 155.028 41.2904 155.296 41.3257C153.056 41.5115 150.974 42.4533 149.457 43.9662C147.941 45.4791 147.1 47.4538 147.1 49.5026H145.469C145.469 47.3246 146.419 45.2358 148.109 43.6957C149.799 42.1556 152.092 41.2904 154.482 41.2904Z" fill="#475D05"/>
<path d="M157.251 45.7512C156.226 45.7512 155.395 44.9944 155.395 44.0608C155.395 43.1272 156.226 42.3704 157.251 42.3704C158.275 42.3704 159.106 43.1272 159.106 44.0608C159.106 44.9944 158.275 45.7512 157.251 45.7512Z" fill="#89A51D"/>
<path d="M160.388 46.0408C159.951 46.0408 159.597 45.7185 159.597 45.3209C159.597 44.9233 159.951 44.601 160.388 44.601C160.824 44.601 161.178 44.9233 161.178 45.3209C161.178 45.7185 160.824 46.0408 160.388 46.0408Z" fill="#89A51D"/>
<path d="M168.829 46.7288C168.307 46.7288 167.884 46.3433 167.884 45.8677C167.884 45.3921 168.307 45.0066 168.829 45.0066C169.351 45.0066 169.774 45.3921 169.774 45.8677C169.774 46.3433 169.351 46.7288 168.829 46.7288Z" fill="#89A51D"/>
<path d="M170.427 46.8771C170.205 46.8771 170.025 46.7128 170.025 46.5101C170.025 46.3074 170.205 46.1431 170.427 46.1431C170.65 46.1431 170.83 46.3074 170.83 46.5101C170.83 46.7128 170.65 46.8771 170.427 46.8771Z" fill="#89A51D"/>
<path d="M229.873 40.468L230.067 40.8209L230.164 40.9903L230.245 41.1703L230.412 41.5232L230.543 41.8761L230.609 42.0631L230.659 42.2502C230.69 42.3772 230.729 42.5043 230.752 42.6313C230.837 43.0277 230.877 43.4309 230.872 43.8347C230.958 43.6442 231.039 43.4501 231.113 43.2524C231.282 42.7917 231.411 42.3198 231.5 41.8408C231.48 42.3362 231.418 42.8294 231.314 43.316C231.271 43.5065 231.221 43.6971 231.167 43.8877C231.616 43.4245 232.113 43.0015 232.65 42.6243C232.933 42.4407 233.204 42.2502 233.502 42.0878C233.65 42.0067 233.789 41.9184 233.94 41.8443L234.393 41.622C234.541 41.5442 234.694 41.4746 234.85 41.4138L235.315 41.2161C235.633 41.0962 235.95 40.9903 236.268 40.8632C235.962 41.0009 235.652 41.1279 235.35 41.2691L234.905 41.4914C234.754 41.5626 234.608 41.6416 234.467 41.7279L234.022 41.9961C233.878 42.0772 233.746 42.1761 233.611 42.2643C233.332 42.4407 233.08 42.6454 232.836 42.8395C232.338 43.2456 231.884 43.6947 231.481 44.1806C231.379 44.2938 231.283 44.4116 231.194 44.5335C231.101 44.657 231.016 44.7876 230.934 44.9182C230.815 45.1049 230.709 45.2982 230.617 45.4969C230.582 45.5887 230.547 45.684 230.504 45.7828L229.966 45.5428C230.013 45.437 230.067 45.3417 230.121 45.2464C230.175 45.1511 230.21 45.0135 230.249 44.8935C230.322 44.6618 230.379 44.426 230.419 44.1876C230.499 43.6958 230.514 43.1969 230.462 42.7019C230.462 42.5784 230.423 42.4549 230.408 42.3313L230.377 42.1443L230.33 41.9608L230.237 41.6079L230.109 41.255L230.047 41.0714L229.97 40.8985L229.811 40.5456C229.695 40.3127 229.559 40.0904 229.424 39.861C229.575 40.0339 229.734 40.2315 229.873 40.468Z" fill="#89A51D"/>
<path d="M219.903 38.2375C221.452 38.2371 222.985 38.5146 224.416 39.0543C225.847 39.5939 227.147 40.3851 228.243 41.3827C229.338 42.3803 230.207 43.5647 230.799 44.8683C231.392 46.1719 231.697 47.5691 231.697 48.9801H208.108C208.108 47.5691 208.413 46.1719 209.006 44.8683C209.599 43.5647 210.468 42.3803 211.563 41.3827C212.658 40.3851 213.959 39.5939 215.39 39.0543C216.821 38.5146 218.354 38.2371 219.903 38.2375Z" fill="#89A51D"/>
<path d="M236.407 42.2185C238.375 42.2185 240.263 42.9309 241.655 44.199C243.046 45.4671 243.828 47.1869 243.828 48.9803H228.986C228.986 48.0923 229.178 47.213 229.551 46.3927C229.923 45.5723 230.47 44.8269 231.159 44.199C231.848 43.5711 232.667 43.073 233.567 42.7332C234.467 42.3934 235.432 42.2185 236.407 42.2185Z" fill="#89A51D"/>
<g style="mix-blend-mode:multiply" opacity="0.3">
<path d="M236.406 42.2185C236.796 42.2181 237.184 42.2465 237.568 42.3032C235.824 42.5552 234.235 43.3661 233.087 44.59C231.94 45.814 231.309 47.3707 231.309 48.9803H228.985C228.985 48.0923 229.177 47.213 229.55 46.3927C229.923 45.5723 230.469 44.8269 231.159 44.199C231.848 43.5711 232.666 43.073 233.566 42.7332C234.467 42.3934 235.432 42.2185 236.406 42.2185Z" fill="#89A51D"/>
</g>
<g style="mix-blend-mode:multiply" opacity="0.3">
<path d="M219.902 38.2375C220.259 38.2375 220.615 38.2552 220.968 38.2834C218.037 38.5248 215.311 39.7562 213.327 41.7356C211.342 43.715 210.242 46.2991 210.242 48.9801H208.108C208.108 47.5691 208.413 46.1719 209.006 44.8683C209.599 43.5647 210.467 42.3803 211.563 41.3827C212.658 40.3851 213.958 39.5939 215.389 39.0543C216.82 38.5146 218.354 38.2371 219.902 38.2375Z" fill="#89A51D"/>
</g>
<path d="M223.524 44.0676C222.185 44.0676 221.1 43.0785 221.1 41.8584C221.1 40.6383 222.185 39.6492 223.524 39.6492C224.863 39.6492 225.949 40.6383 225.949 41.8584C225.949 43.0785 224.863 44.0676 223.524 44.0676Z" fill="#A0BE26"/>
<path d="M227.625 44.4489C227.054 44.4489 226.591 44.027 226.591 43.5066C226.591 42.9862 227.054 42.5643 227.625 42.5643C228.196 42.5643 228.659 42.9862 228.659 43.5066C228.659 44.027 228.196 44.4489 227.625 44.4489Z" fill="#A0BE26"/>
<path d="M238.668 45.3453C237.986 45.3453 237.433 44.8413 237.433 44.2195C237.433 43.5978 237.986 43.0938 238.668 43.0938C239.351 43.0938 239.904 43.5978 239.904 44.2195C239.904 44.8413 239.351 45.3453 238.668 45.3453Z" fill="#A0BE26"/>
<path d="M240.761 45.5394C240.47 45.5394 240.234 45.3245 240.234 45.0594C240.234 44.7944 240.47 44.5795 240.761 44.5795C241.052 44.5795 241.287 44.7944 241.287 45.0594C241.287 45.3245 241.052 45.5394 240.761 45.5394Z" fill="#A0BE26"/>
<path d="M51.3147 40.4682L51.5123 40.8211L51.6091 40.9905L51.6905 41.1705L51.8531 41.5234L51.9887 41.8763L52.0546 42.0633L52.101 42.2504C52.132 42.3774 52.1746 42.5045 52.1979 42.6315C52.2787 43.0284 52.3189 43.4313 52.318 43.8349C52.4032 43.6444 52.4845 43.4503 52.5542 43.2526C52.7215 42.7914 52.8509 42.3196 52.9416 41.841C52.9187 42.3363 52.8553 42.8294 52.7518 43.3161C52.7092 43.5067 52.6588 43.6973 52.6046 43.8879C53.0543 43.4238 53.5524 43.0007 54.092 42.6244C54.3708 42.4409 54.6458 42.2504 54.9402 42.088C55.0874 42.0068 55.2268 41.9186 55.3818 41.8445L55.8311 41.6222C55.98 41.5444 56.1339 41.4748 56.292 41.414L56.7568 41.2163C57.0706 41.0963 57.3921 40.9905 57.7058 40.8634C57.3998 41.0011 57.0899 41.1281 56.7878 41.2693L56.3424 41.4916C56.1922 41.5636 56.0461 41.6425 55.9047 41.728L55.4786 41.9786C55.3353 42.0598 55.2036 42.1586 55.068 42.2468C54.793 42.4233 54.5413 42.628 54.2934 42.8221C53.7949 43.2281 53.3409 43.6772 52.9377 44.1631C52.837 44.2831 52.7401 44.4066 52.6511 44.516C52.562 44.6254 52.4729 44.7701 52.3915 44.9007C52.2726 45.0875 52.1665 45.2807 52.0739 45.4795C52.0429 45.5712 52.0081 45.6665 51.9655 45.7653L51.4271 45.5254C51.4774 45.4195 51.5278 45.3242 51.582 45.2289C51.6362 45.1336 51.675 44.996 51.7098 44.876C51.7851 44.6448 51.8421 44.4089 51.8803 44.1702C51.9623 43.6785 51.9766 43.1794 51.9229 42.6844C51.9229 42.5609 51.888 42.4374 51.8686 42.3139L51.8376 42.1268L51.7912 41.9433L51.6982 41.5904L51.5743 41.2375L51.5084 41.054L51.4309 40.8811L51.2721 40.5282C51.1559 40.2952 51.0204 40.0729 50.8848 39.8435C51.0204 40.0341 51.1792 40.2317 51.3147 40.4682Z" fill="#89A51D"/>
<path d="M41.3435 38.2378C44.4705 38.2378 47.4695 39.3696 49.6807 41.3842C51.8918 43.3989 53.134 46.1313 53.134 48.9804H29.549C29.5501 46.131 30.7931 43.3985 33.0049 41.384C35.2167 39.3695 38.2161 38.2378 41.3435 38.2378Z" fill="#89A51D"/>
<path d="M57.8525 42.2188C59.8208 42.2188 61.7085 42.9312 63.1003 44.1992C64.492 45.4673 65.2739 47.1872 65.2739 48.9805H50.4234C50.4234 48.092 50.6156 47.2121 50.9891 46.3913C51.3625 45.5704 51.9099 44.8247 52.5998 44.1967C53.2898 43.5688 54.1088 43.0708 55.0101 42.7314C55.9114 42.392 56.8773 42.2178 57.8525 42.2188Z" fill="#89A51D"/>
<g style="mix-blend-mode:multiply" opacity="0.3">
<path d="M57.8531 42.2188C58.2423 42.2186 58.6309 42.247 59.0151 42.3035C57.2689 42.554 55.6781 43.3642 54.5292 44.5883C53.3803 45.8123 52.7486 47.3699 52.748 48.9805H50.424C50.424 48.092 50.6162 47.2121 50.9897 46.3913C51.3631 45.5704 51.9104 44.8247 52.6004 44.1967C53.2904 43.5688 54.1094 43.0708 55.0107 42.7314C55.912 42.392 56.8779 42.2178 57.8531 42.2188Z" fill="#89A51D"/>
</g>
<g style="mix-blend-mode:multiply" opacity="0.3">
<path d="M41.344 38.2378C41.7042 38.2378 42.0567 38.2554 42.4092 38.2837C39.4789 38.5259 36.754 39.7575 34.7694 41.7367C32.7849 43.7159 31.6843 46.2996 31.6838 48.9804H29.5496C29.5506 46.131 30.7937 43.3985 33.0054 41.384C35.2172 39.3695 38.2166 38.2378 41.344 38.2378Z" fill="#89A51D"/>
</g>
<path d="M44.9698 44.0679C43.6307 44.0679 42.5451 43.0788 42.5451 41.8586C42.5451 40.6385 43.6307 39.6494 44.9698 39.6494C46.3089 39.6494 47.3945 40.6385 47.3945 41.8586C47.3945 43.0788 46.3089 44.0679 44.9698 44.0679Z" fill="#A0BE26"/>
<path d="M49.0674 44.4491C48.4962 44.4491 48.0332 44.0272 48.0332 43.5068C48.0332 42.9864 48.4962 42.5646 49.0674 42.5646C49.6385 42.5646 50.1016 42.9864 50.1016 43.5068C50.1016 44.0272 49.6385 44.4491 49.0674 44.4491Z" fill="#A0BE26"/>
<path d="M60.1147 45.3456C59.4323 45.3456 58.8791 44.8415 58.8791 44.2198C58.8791 43.598 59.4323 43.094 60.1147 43.094C60.7971 43.094 61.3503 43.598 61.3503 44.2198C61.3503 44.8415 60.7971 45.3456 60.1147 45.3456Z" fill="#A0BE26"/>
<path d="M62.2044 45.5396C61.9135 45.5396 61.6776 45.3247 61.6776 45.0597C61.6776 44.7946 61.9135 44.5797 62.2044 44.5797C62.4954 44.5797 62.7312 44.7946 62.7312 45.0597C62.7312 45.3247 62.4954 45.5396 62.2044 45.5396Z" fill="#A0BE26"/>
<path d="M95.8538 43.9303L95.9816 44.1597L96.0475 44.2762L96.1017 44.3962L96.214 44.6362L96.3031 44.8832L96.3457 45.0067L96.3806 45.1373C96.4 45.222 96.4271 45.3067 96.4426 45.3914C96.4988 45.6577 96.526 45.9284 96.5239 46.1996C96.582 46.0725 96.6362 45.9419 96.6827 45.8078C96.7987 45.4951 96.8855 45.174 96.9422 44.8479C96.9266 45.1809 96.8839 45.5124 96.8144 45.8396C96.7873 45.9666 96.7524 46.0972 96.7176 46.2243C97.0195 45.9131 97.3528 45.6283 97.713 45.3737C97.9028 45.2502 98.1004 45.1232 98.2863 45.0208C98.387 44.9679 98.48 44.9044 98.5807 44.855L98.8867 44.7067C98.9835 44.6538 99.0881 44.6115 99.1927 44.5656L99.5064 44.435C99.7194 44.3538 99.9325 44.2833 100.146 44.2056C99.9402 44.2974 99.7311 44.3821 99.5258 44.4774L99.2275 44.6291C99.1307 44.6785 99.03 44.7279 98.9331 44.7844L98.6465 44.9538C98.5536 45.0102 98.4645 45.0738 98.3715 45.1338C98.1856 45.2538 98.0151 45.3914 97.8447 45.522C97.5084 45.794 97.2023 46.0954 96.9306 46.4219C96.8648 46.5031 96.7989 46.5842 96.7408 46.6725C96.6768 46.7549 96.6186 46.841 96.5665 46.9301C96.4858 47.0554 96.4134 47.1851 96.3496 47.3183C96.3297 47.3844 96.3051 47.4492 96.276 47.5124L95.9158 47.35C95.9468 47.2795 95.9855 47.2124 96.0204 47.1489C96.0552 47.0854 96.0823 46.9936 96.1056 46.916C96.1543 46.7569 96.1931 46.5955 96.2218 46.4325C96.2735 46.1017 96.2826 45.7665 96.2489 45.4337C96.2489 45.3526 96.2256 45.2679 96.2102 45.1867L96.1908 45.0597L96.1598 44.9361L96.0978 44.6891L96.0126 44.4456L95.97 44.3256L95.9197 44.2056L95.8112 43.9692C95.7337 43.8139 95.6408 43.6657 95.5594 43.5104C95.6524 43.6374 95.7415 43.7821 95.8538 43.9303Z" fill="#89A51D"/>
<path d="M89.1559 42.4305C91.2584 42.4315 93.2746 43.1929 94.7613 44.5475C96.248 45.902 97.0837 47.739 97.0847 49.6546H81.231C81.231 47.7393 82.0658 45.9023 83.5519 44.5477C85.038 43.193 87.0537 42.4315 89.1559 42.4305Z" fill="#89A51D"/>
<path d="M100.246 45.1089C101.569 45.1089 102.838 45.5878 103.774 46.4402C104.709 47.2927 105.235 48.4488 105.235 49.6544H95.257C95.257 48.4488 95.7827 47.2927 96.7183 46.4402C97.6539 45.5878 98.9228 45.1089 100.246 45.1089Z" fill="#89A51D"/>
<g style="mix-blend-mode:multiply" opacity="0.3">
<path d="M100.246 45.1089C100.506 45.1084 100.765 45.1273 101.021 45.1654C99.848 45.335 98.7801 45.8803 98.009 46.7032C97.238 47.526 96.8143 48.5724 96.8143 49.6544H95.2649C95.2649 48.4501 95.7895 47.295 96.7234 46.4427C97.6573 45.5905 98.9243 45.1108 100.246 45.1089Z" fill="#89A51D"/>
</g>
<g style="mix-blend-mode:multiply" opacity="0.3">
<path d="M89.1572 42.4305C89.3974 42.4305 89.6375 42.4305 89.8738 42.4623C87.9042 42.626 86.0729 43.4545 84.7392 44.7852C83.4056 46.1159 82.6659 47.8526 82.6654 49.6546H81.2323C81.2323 47.7393 82.0671 45.9023 83.5532 44.5477C85.0393 43.193 87.055 42.4315 89.1572 42.4305Z" fill="#89A51D"/>
</g>
<path d="M91.5863 46.3514C90.6857 46.3514 89.9557 45.6862 89.9557 44.8656C89.9557 44.0451 90.6857 43.3799 91.5863 43.3799C92.4869 43.3799 93.217 44.0451 93.217 44.8656C93.217 45.6862 92.4869 46.3514 91.5863 46.3514Z" fill="#A0BE26"/>
<path d="M94.3426 46.6053C93.9596 46.6053 93.6492 46.3225 93.6492 45.9736C93.6492 45.6247 93.9596 45.3419 94.3426 45.3419C94.7255 45.3419 95.0359 45.6247 95.0359 45.9736C95.0359 46.3225 94.7255 46.6053 94.3426 46.6053Z" fill="#A0BE26"/>
<path d="M101.765 47.2125C101.305 47.2125 100.932 46.8728 100.932 46.4537C100.932 46.0347 101.305 45.6949 101.765 45.6949C102.225 45.6949 102.598 46.0347 102.598 46.4537C102.598 46.8728 102.225 47.2125 101.765 47.2125Z" fill="#A0BE26"/>
<path d="M103.171 47.3392C102.977 47.3392 102.819 47.1954 102.819 47.018C102.819 46.8407 102.977 46.6969 103.171 46.6969C103.366 46.6969 103.524 46.8407 103.524 47.018C103.524 47.1954 103.366 47.3392 103.171 47.3392Z" fill="#A0BE26"/>
<path d="M0.00370789 48.5776H244.092V56.4087H0.00370789V48.5776Z" fill="#324E60"/>
<path d="M210.103 47.7875H242.861C243.542 47.7875 244.092 48.1404 244.092 48.578C244.092 49.0156 243.542 49.3685 242.861 49.3685H210.103C209.426 49.3685 208.872 49.0156 208.872 48.578C208.872 48.1404 209.426 47.7875 210.103 47.7875Z" fill="#D8CBC5"/>
<path d="M46.5501 47.7877H173.856C174.538 47.7877 175.088 48.1406 175.088 48.5782C175.088 49.0158 174.538 49.3688 173.856 49.3688H46.5501C45.8723 49.3688 45.3184 49.0158 45.3184 48.5782C45.3184 48.1406 45.88 47.7877 46.5501 47.7877Z" fill="#D8CBC5"/>
<path d="M1.2316 47.7877H9.59808C10.2798 47.7877 10.8298 48.1406 10.8298 48.5782C10.8298 49.0158 10.2798 49.3688 9.59808 49.3688H1.2316C0.553754 49.3688 -0.000136375 49.0158 -0.000136375 48.5782C-0.000136375 48.1406 0.557628 47.7877 1.2316 47.7877Z" fill="#D8CBC5"/>
<path d="M236.611 53.995H242.708C242.751 53.9858 242.796 53.9856 242.839 53.9944C242.883 54.0032 242.923 54.0209 242.958 54.046C242.993 54.0711 243.021 54.103 243.04 54.1394C243.059 54.1758 243.069 54.2157 243.069 54.2561C243.069 54.2965 243.059 54.3364 243.04 54.3728C243.021 54.4092 242.993 54.4412 242.958 54.4663C242.923 54.4914 242.883 54.509 242.839 54.5179C242.796 54.5267 242.751 54.5265 242.708 54.5173H236.611C236.568 54.5265 236.523 54.5267 236.48 54.5179C236.436 54.509 236.396 54.4914 236.361 54.4663C236.326 54.4412 236.298 54.4092 236.279 54.3728C236.26 54.3364 236.25 54.2965 236.25 54.2561C236.25 54.2157 236.26 54.1758 236.279 54.1394C236.298 54.103 236.326 54.0711 236.361 54.046C236.396 54.0209 236.436 54.0032 236.48 53.9944C236.523 53.9856 236.568 53.9858 236.611 53.995Z" fill="#D8CBC5"/>
<path d="M196.386 53.995H208.599C208.642 53.9858 208.687 53.9856 208.73 53.9944C208.773 54.0032 208.814 54.0209 208.849 54.046C208.883 54.0711 208.912 54.103 208.931 54.1394C208.95 54.1758 208.96 54.2157 208.96 54.2561C208.96 54.2965 208.95 54.3364 208.931 54.3728C208.912 54.4092 208.883 54.4412 208.849 54.4663C208.814 54.4914 208.773 54.509 208.73 54.5179C208.687 54.5267 208.642 54.5265 208.599 54.5173H196.386C196.343 54.5265 196.298 54.5267 196.255 54.5179C196.211 54.509 196.171 54.4914 196.136 54.4663C196.101 54.4412 196.073 54.4092 196.054 54.3728C196.035 54.3364 196.025 54.2965 196.025 54.2561C196.025 54.2157 196.035 54.1758 196.054 54.1394C196.073 54.103 196.101 54.0711 196.136 54.046C196.171 54.0209 196.211 54.0032 196.255 53.9944C196.298 53.9856 196.343 53.9858 196.386 53.995Z" fill="#D8CBC5"/>
<path d="M156.167 53.9952H168.376C168.419 53.986 168.464 53.9858 168.507 53.9946C168.551 54.0035 168.591 54.0211 168.626 54.0462C168.661 54.0713 168.689 54.1033 168.708 54.1397C168.728 54.1761 168.738 54.216 168.738 54.2564C168.738 54.2968 168.728 54.3367 168.708 54.3731C168.689 54.4095 168.661 54.4414 168.626 54.4665C168.591 54.4916 168.551 54.5093 168.507 54.5181C168.464 54.5269 168.419 54.5267 168.376 54.5175H156.167C156.124 54.5267 156.079 54.5269 156.036 54.5181C155.993 54.5093 155.952 54.4916 155.917 54.4665C155.882 54.4414 155.854 54.4095 155.835 54.3731C155.816 54.3367 155.806 54.2968 155.806 54.2564C155.806 54.216 155.816 54.1761 155.835 54.1397C155.854 54.1033 155.882 54.0713 155.917 54.0462C155.952 54.0211 155.993 54.0035 156.036 53.9946C156.079 53.9858 156.124 53.986 156.167 53.9952Z" fill="#D8CBC5"/>
<path d="M75.7212 53.9952H87.93C87.9732 53.986 88.0181 53.9858 88.0614 53.9946C88.1047 54.0035 88.1453 54.0211 88.18 54.0462C88.2148 54.0713 88.2429 54.1033 88.2622 54.1397C88.2815 54.1761 88.2915 54.216 88.2915 54.2564C88.2915 54.2968 88.2815 54.3367 88.2622 54.3731C88.2429 54.4095 88.2148 54.4414 88.18 54.4665C88.1453 54.4916 88.1047 54.5093 88.0614 54.5181C88.0181 54.5269 87.9732 54.5267 87.93 54.5175H75.7212C75.678 54.5267 75.633 54.5269 75.5898 54.5181C75.5465 54.5093 75.5059 54.4916 75.4712 54.4665C75.4364 54.4414 75.4083 54.4095 75.389 54.3731C75.3697 54.3367 75.3597 54.2968 75.3597 54.2564C75.3597 54.216 75.3697 54.1761 75.389 54.1397C75.4083 54.1033 75.4364 54.0713 75.4712 54.0462C75.5059 54.0211 75.5465 54.0035 75.5898 53.9946C75.633 53.9858 75.678 53.986 75.7212 53.9952Z" fill="#D8CBC5"/>
<path d="M115.941 53.9952H128.154C128.197 53.986 128.242 53.9858 128.285 53.9946C128.328 54.0035 128.369 54.0211 128.404 54.0462C128.438 54.0713 128.466 54.1033 128.486 54.1397C128.505 54.1761 128.515 54.216 128.515 54.2564C128.515 54.2968 128.505 54.3367 128.486 54.3731C128.466 54.4095 128.438 54.4414 128.404 54.4665C128.369 54.4916 128.328 54.5093 128.285 54.5181C128.242 54.5269 128.197 54.5267 128.154 54.5175H115.941C115.898 54.5267 115.853 54.5269 115.81 54.5181C115.766 54.5093 115.726 54.4916 115.691 54.4665C115.656 54.4414 115.628 54.4095 115.609 54.3731C115.589 54.3367 115.579 54.2968 115.579 54.2564C115.579 54.216 115.589 54.1761 115.609 54.1397C115.628 54.1033 115.656 54.0713 115.691 54.0462C115.726 54.0211 115.766 54.0035 115.81 53.9946C115.853 53.9858 115.898 53.986 115.941 53.9952Z" fill="#D8CBC5"/>
<path d="M35.498 53.9952H47.7108C47.754 53.986 47.7989 53.9858 47.8422 53.9946C47.8855 54.0035 47.926 54.0211 47.9608 54.0462C47.9956 54.0713 48.0236 54.1033 48.0429 54.1397C48.0622 54.1761 48.0723 54.216 48.0723 54.2564C48.0723 54.2968 48.0622 54.3367 48.0429 54.3731C48.0236 54.4095 47.9956 54.4414 47.9608 54.4665C47.926 54.4916 47.8855 54.5093 47.8422 54.5181C47.7989 54.5269 47.754 54.5267 47.7108 54.5175H35.5019C35.4587 54.5267 35.4138 54.5269 35.3705 54.5181C35.3272 54.5093 35.2867 54.4916 35.2519 54.4665C35.2172 54.4414 35.1891 54.4095 35.1698 54.3731C35.1505 54.3367 35.1405 54.2968 35.1405 54.2564C35.1405 54.216 35.1505 54.1761 35.1698 54.1397C35.1891 54.1033 35.2172 54.0713 35.2519 54.0462C35.2867 54.0211 35.3272 54.0035 35.3705 53.9946C35.4138 53.9858 35.4587 53.986 35.5019 53.9952H35.498Z" fill="#D8CBC5"/>
<path d="M1.39019 53.9952H7.48303C7.52623 53.986 7.57114 53.9858 7.61443 53.9946C7.65772 54.0035 7.69825 54.0211 7.73301 54.0462C7.76777 54.0713 7.79586 54.1033 7.81517 54.1397C7.83447 54.1761 7.84448 54.216 7.84448 54.2564C7.84448 54.2968 7.83447 54.3367 7.81517 54.3731C7.79586 54.4095 7.76777 54.4414 7.73301 54.4665C7.69825 54.4916 7.65772 54.5093 7.61443 54.5181C7.57114 54.5269 7.52623 54.5267 7.48303 54.5175H1.39019C1.347 54.5267 1.30209 54.5269 1.2588 54.5181C1.21551 54.5093 1.17497 54.4916 1.14021 54.4665C1.10545 54.4414 1.07736 54.4095 1.05806 54.3731C1.03876 54.3367 1.02874 54.2968 1.02874 54.2564C1.02874 54.216 1.03876 54.1761 1.05806 54.1397C1.07736 54.1033 1.10545 54.0713 1.14021 54.0462C1.17497 54.0211 1.21551 54.0035 1.2588 53.9946C1.30209 53.9858 1.347 53.986 1.39019 53.9952Z" fill="#D8CBC5"/>
<path d="M102.788 3.65613L75.2987 4.41489L102.788 5.17364V3.65613Z" fill="#00A79D"/>
<path d="M102.788 31.3771L75.2987 32.1358L102.788 32.8911V31.3771Z" fill="#00A79D"/>
<path d="M102.788 1.5387L82.7821 1.99042L102.788 2.44568V1.5387Z" fill="#00A79D"/>
<path d="M102.788 6.63464L58.1203 7.84866L102.788 9.05914V6.63464Z" fill="#00A79D"/>
<path d="M102.788 27.0858L58.1203 28.5998L102.788 30.1138V27.0858Z" fill="#00A79D"/>
<path d="M102.788 13.2517L58.1203 14.6139L102.788 15.9762V13.2517Z" fill="#FEECCC"/>
<path d="M102.788 17.2888L88.046 18.6546L102.788 20.0168V17.2888Z" fill="#FEECCC"/>
<path d="M102.788 38.9011L58.1203 39.3564L102.788 39.8116V38.9011Z" fill="#11345B"/>
<path d="M102.788 41.4774L73.3039 42.3844L102.788 43.2949V41.4774Z" fill="#11345B"/>
<path d="M119.411 52.0791L89.9265 52.9896L119.411 53.8966V52.0791Z" fill="#233A4C"/>
<path d="M118.412 50.1097L99.9594 51.0203L118.412 51.9272V50.1097Z" fill="#233A4C"/>
<path d="M118.412 46.9794L104.669 47.8899L118.412 48.7969V46.9794Z" fill="#233A4C"/>
<path d="M195.059 52.0789L165.575 52.9894L195.059 53.8963V52.0789Z" fill="#233A4C"/>
<path d="M194.058 50.1095L175.605 51.02L194.058 51.927V50.1095Z" fill="#233A4C"/>
<path d="M194.058 46.9791L180.315 47.8896L194.058 48.7966V46.9791Z" fill="#233A4C"/>
<path d="M97.2414 40.3413C97.2414 39.6494 97.857 39.0885 98.6164 39.0885C99.3758 39.0885 99.9915 39.6494 99.9915 40.3413V45.0986C99.9915 45.7905 99.3758 46.3514 98.6164 46.3514C97.857 46.3514 97.2414 45.7905 97.2414 45.0986V40.3413Z" fill="#11345B"/>
<path d="M181.259 9.21094V45.5854H177.796V9.21094H181.259Z" fill="#11345B"/>
<path d="M181.258 46.3474H222.013C222.266 46.3474 222.508 46.256 222.687 46.0931C222.866 45.9303 222.966 45.7095 222.966 45.4793V29.1783C222.966 28.8124 222.863 28.4526 222.667 28.1332C222.471 27.8138 222.189 27.5455 221.847 27.3538L219.108 25.8221L213.256 11.2928C212.897 10.2595 212.186 9.35729 211.226 8.717C210.266 8.07672 209.108 7.73168 207.918 7.73194H182.044C181.83 7.73147 181.619 7.76938 181.422 7.84348C181.224 7.91759 181.045 8.02643 180.894 8.16379C180.743 8.30114 180.623 8.46431 180.541 8.64394C180.459 8.82358 180.417 9.01615 180.417 9.21063V45.5851C180.418 45.7876 180.507 45.9815 180.665 46.1244C180.822 46.2672 181.035 46.3474 181.258 46.3474Z" fill="#11345B"/>
<path d="M187.441 40.4397H180.418V9.21063C180.418 9.01615 180.461 8.82358 180.542 8.64394C180.624 8.46431 180.744 8.30114 180.895 8.16379C181.046 8.02643 181.226 7.91759 181.423 7.84348C181.62 7.76938 181.832 7.73147 182.045 7.73194H207.919C209.109 7.73168 210.268 8.07672 211.227 8.717C212.187 9.35729 212.898 10.2595 213.257 11.2928L219.129 25.8221L221.867 27.3538C222.209 27.5455 222.492 27.8138 222.688 28.1332C222.884 28.4526 222.987 28.8124 222.987 29.1783V45.4793C222.987 45.5948 222.962 45.7091 222.912 45.8156C222.863 45.9221 222.791 46.0186 222.701 46.0995C222.61 46.1803 222.503 46.2439 222.385 46.2865C222.267 46.329 222.141 46.3498 222.015 46.3474H209.453C209.805 43.8503 209.168 41.3208 207.658 39.2127C206.147 37.1046 203.861 35.5559 201.211 34.8446C198.56 34.1332 195.718 34.3057 193.195 35.3311C190.671 36.3565 188.631 38.1677 187.441 40.4397Z" fill="url(#paint0_linear_252_162)"/>
<g style="mix-blend-mode:multiply" opacity="0.5">
<path d="M182.537 40.4399V10.3789C182.537 9.89878 182.746 9.43829 183.119 9.09877C183.492 8.75925 183.997 8.56851 184.524 8.56851H207.919C208.911 8.56529 209.878 8.85128 210.679 9.38466C211.48 9.91803 212.072 10.6708 212.37 11.533L218.567 26.9657V42.702C218.57 43.0718 218.493 43.4384 218.34 43.7808C218.187 44.1233 217.961 44.4347 217.675 44.6971C217.389 44.9596 217.049 45.1679 216.674 45.31C216.3 45.4521 215.898 45.5253 215.492 45.5253H209.523C209.523 45.3841 209.523 45.2465 209.523 45.1053C209.523 44.9642 209.523 44.7524 209.523 44.5654H215.492C215.759 44.5654 216.024 44.517 216.27 44.4231C216.517 44.3292 216.741 44.1915 216.928 44.0182C217.116 43.8448 217.264 43.6392 217.364 43.4132C217.464 43.1873 217.513 42.9455 217.51 42.702V27.1351L211.374 11.84C211.146 11.1683 210.687 10.5812 210.065 10.165C209.443 9.74887 208.691 9.52571 207.919 9.52842H184.524C184.402 9.52842 184.28 9.55042 184.167 9.59317C184.054 9.63591 183.951 9.69856 183.864 9.77754C183.777 9.85651 183.709 9.95027 183.662 10.0535C183.615 10.1567 183.591 10.2672 183.591 10.3789V40.4399H182.537Z" fill="#00A79D"/>
</g>
<g style="mix-blend-mode:multiply" opacity="0.5">
<path d="M186.339 9.52823H207.918C208.688 9.52502 209.438 9.74677 210.059 10.1609C210.68 10.5751 211.14 11.1598 211.369 11.8292L216.916 25.4092C216.995 25.641 217.013 25.8863 216.968 26.1256C216.924 26.3648 216.819 26.5913 216.661 26.7867C216.503 26.982 216.297 27.1409 216.059 27.2504C215.822 27.36 215.559 27.4171 215.293 27.4173H211.059C209.076 27.4165 207.156 26.7793 205.636 25.6174L205.11 25.2116C203.684 24.1232 201.884 23.5261 200.024 23.5247H186.339C185.854 23.5237 185.388 23.3476 185.045 23.0347C184.702 22.7219 184.508 22.2978 184.507 21.8554V11.1975C184.508 10.7551 184.702 10.331 185.045 10.0182C185.388 9.70533 185.854 9.52917 186.339 9.52823Z" fill="#00A79D"/>
</g>
<path d="M184.522 8.82245H207.918C208.855 8.81919 209.769 9.08991 210.526 9.59488C211.282 10.0998 211.841 10.8125 212.12 11.6281L218.279 26.9797V27.0221V42.7019C218.278 43.3802 217.982 44.0304 217.455 44.5101C216.929 44.9897 216.215 45.2595 215.471 45.2605H182.779V10.3788C182.784 9.96195 182.971 9.56399 183.298 9.27221C183.624 8.98044 184.065 8.81869 184.522 8.82245ZM183.325 44.8193H215.474C215.777 44.8189 216.077 44.7635 216.356 44.6565C216.635 44.5494 216.888 44.3927 217.1 44.1956C217.312 43.9985 217.479 43.7649 217.591 43.5084C217.703 43.252 217.758 42.9778 217.752 42.7019V27.0926L211.624 11.7693C211.376 11.0511 210.883 10.424 210.216 9.97953C209.549 9.53508 208.744 9.29658 207.918 9.29888H184.522C184.205 9.29888 183.9 9.41377 183.676 9.61828C183.452 9.82279 183.325 10.1002 183.325 10.3894V44.8193Z" fill="#11345B"/>
<path d="M200.024 23.2672H186.339C185.923 23.2672 185.524 23.1166 185.23 22.8485C184.936 22.5805 184.77 22.2169 184.77 21.8379V11.1976C184.77 10.8185 184.936 10.455 185.23 10.187C185.524 9.91891 185.923 9.76832 186.339 9.76832H207.918C208.633 9.76641 209.331 9.97384 209.907 10.3601C210.484 10.7464 210.909 11.291 211.121 11.914L216.664 25.4623C216.733 25.659 216.751 25.8679 216.715 26.072C216.679 26.2761 216.591 26.4695 216.457 26.6365C216.323 26.8034 216.148 26.9392 215.945 27.0326C215.743 27.126 215.519 27.1744 215.292 27.1739H211.059C209.135 27.1677 207.275 26.5428 205.807 25.4093L205.276 25.0035C203.804 23.8802 201.944 23.2655 200.024 23.2672Z" fill="#11345B"/>
<g style="mix-blend-mode:multiply" opacity="0.5">
<path d="M185.116 25.8293H189.326C189.512 25.8293 189.69 25.8966 189.822 26.0164C189.953 26.1362 190.027 26.2987 190.027 26.4681C190.027 26.6375 189.953 26.8 189.822 26.9198C189.69 27.0396 189.512 27.1069 189.326 27.1069H185.116C184.93 27.1069 184.751 27.0396 184.62 26.9198C184.488 26.8 184.415 26.6375 184.415 26.4681C184.415 26.2987 184.488 26.1362 184.62 26.0164C184.751 25.8966 184.93 25.8293 185.116 25.8293Z" fill="#00A79D"/>
</g>
<path d="M185.472 25.5048H189.683C189.869 25.5048 190.047 25.5721 190.178 25.6919C190.31 25.8116 190.384 25.9741 190.384 26.1435C190.384 26.3129 190.31 26.4754 190.178 26.5952C190.047 26.715 189.869 26.7823 189.683 26.7823H185.472C185.286 26.7823 185.108 26.715 184.977 26.5952C184.845 26.4754 184.771 26.3129 184.771 26.1435C184.771 25.9741 184.845 25.8116 184.977 25.6919C185.108 25.5721 185.286 25.5048 185.472 25.5048Z" fill="#FEECCC"/>
<path d="M220.32 43.0547H223.95V36.0918C223.949 35.9378 223.984 35.7855 224.053 35.6446C224.121 35.5038 224.221 35.3776 224.346 35.2741C224.471 35.1707 224.619 35.0924 224.78 35.0441C224.94 34.9959 225.11 34.9789 225.278 34.9942C225.582 35.029 225.862 35.165 226.063 35.376C226.264 35.5871 226.372 35.8583 226.367 36.1376V43.9511C226.367 44.1246 226.33 44.2964 226.257 44.4567C226.185 44.6171 226.078 44.7628 225.943 44.8854C225.809 45.0081 225.649 45.1053 225.473 45.1715C225.297 45.2376 225.108 45.2714 224.918 45.271H220.27C220.101 45.2708 219.934 45.2384 219.78 45.1759C219.626 45.1134 219.488 45.0222 219.375 44.9082C219.262 44.7942 219.176 44.6598 219.124 44.5138C219.071 44.3678 219.052 44.2134 219.069 44.0605C219.104 43.7814 219.251 43.5239 219.482 43.338C219.713 43.1521 220.012 43.0512 220.32 43.0547Z" fill="#11345B"/>
<path d="M187.438 40.4398C186.454 42.2712 186.075 44.3235 186.346 46.3475H181.256C181.034 46.3475 180.821 46.2673 180.663 46.1245C180.506 45.9816 180.417 45.7878 180.416 45.5853V40.4398H187.438Z" fill="#11345B"/>
<path d="M215.235 20.4192L216.01 20.1228C216.11 20.112 216.211 20.112 216.312 20.1228C216.498 20.0522 216.649 20.4334 216.649 20.9768V25.8717C216.649 26.4117 216.498 26.9093 216.312 26.9798L215.537 27.2763C215.437 27.2871 215.335 27.2871 215.235 27.2763C215.049 27.3469 214.898 26.9622 214.898 26.4223V21.5274C214.898 20.9839 215.041 20.4898 215.235 20.4192Z" fill="#EACFA4"/>
<path d="M215.537 20.4192L216.312 20.1228C216.498 20.0522 216.649 20.4334 216.649 20.9768V25.8717C216.649 26.4117 216.498 26.9093 216.312 26.9798L215.537 27.2763C215.347 27.3469 215.196 26.9622 215.196 26.4223V21.5274C215.196 20.9839 215.347 20.4898 215.537 20.4192Z" fill="#FEECCC"/>
<path d="M187.439 40.4397C188.394 38.6539 189.881 37.1489 191.73 36.0967C193.58 35.0445 195.717 34.4876 197.897 34.4896C198.06 34.4896 198.218 34.4896 198.381 34.4896C195.385 34.6044 192.553 35.7703 190.478 37.7435C188.403 39.7167 187.246 42.3444 187.249 45.0769C187.251 45.4968 187.278 45.9162 187.33 46.3333H186.347C186.075 44.3092 186.455 42.2569 187.439 40.4256V40.4397Z" fill="#FEECCC"/>
<path d="M197.897 54.4643C192.215 54.4643 187.609 50.2677 187.609 45.091C187.609 39.9142 192.215 35.7177 197.897 35.7177C203.579 35.7177 208.185 39.9142 208.185 45.091C208.185 50.2677 203.579 54.4643 197.897 54.4643Z" fill="#233A4C"/>
<path d="M197.898 53.7867C192.627 53.7867 188.354 49.8935 188.354 45.091C188.354 40.2885 192.627 36.3953 197.898 36.3953C203.169 36.3953 207.442 40.2885 207.442 45.091C207.442 49.8935 203.169 53.7867 197.898 53.7867Z" fill="#294259"/>
<path d="M197.899 50.9214C194.365 50.9214 191.5 48.3112 191.5 45.0913C191.5 41.8714 194.365 39.2612 197.899 39.2612C201.433 39.2612 204.298 41.8714 204.298 45.0913C204.298 48.3112 201.433 50.9214 197.899 50.9214Z" fill="#233A4C"/>
<path d="M197.898 50.1271C194.846 50.1271 192.371 47.8724 192.371 45.0911C192.371 42.3098 194.846 40.0551 197.898 40.0551C200.951 40.0551 203.426 42.3098 203.426 45.0911C203.426 47.8724 200.951 50.1271 197.898 50.1271Z" fill="#FEECCC"/>
<path d="M194.481 41.1387C193.653 42.1061 193.241 43.316 193.324 44.5405C193.407 45.7649 193.978 46.9196 194.93 47.7871C195.882 48.6546 197.15 49.1751 198.494 49.2505C199.838 49.326 201.165 48.9513 202.227 48.1969C201.748 48.7635 201.141 49.2304 200.448 49.5666C199.755 49.9028 198.991 50.1005 198.208 50.1465C197.424 50.1924 196.639 50.0857 195.904 49.8333C195.17 49.5809 194.502 49.1887 193.947 48.6829C193.392 48.177 192.961 47.5691 192.684 46.8997C192.407 46.2303 192.29 45.5148 192.341 44.8008C192.391 44.0869 192.608 43.391 192.977 42.7595C193.346 42.128 193.859 41.5755 194.481 41.1387Z" fill="#D8BF98"/>
<path d="M103.701 0H175.262C177.489 0 179.294 1.64482 179.294 3.6738V42.674C179.294 44.7029 177.489 46.3478 175.262 46.3478H103.701C101.474 46.3478 99.6692 44.7029 99.6692 42.674V3.6738C99.6692 1.64482 101.474 0 103.701 0Z" fill="url(#paint1_linear_252_162)"/>
<path d="M105.293 46.3477H144.414C144.654 46.3459 144.882 46.2587 145.052 46.105C145.221 45.9513 145.318 45.7432 145.321 45.5254V29.8703C145.322 29.5167 145.224 29.1687 145.036 28.8596C144.847 28.5506 144.575 28.291 144.244 28.1057L141.618 26.6376L136.001 12.7047C135.66 11.7111 134.979 10.8428 134.058 10.2264C133.137 9.61 132.024 9.27771 130.881 9.27795H106.049C105.638 9.27795 105.244 9.42668 104.953 9.69141C104.663 9.95615 104.499 10.3152 104.499 10.6896V45.596C104.496 45.6931 104.514 45.7898 104.553 45.8804C104.591 45.971 104.649 46.0538 104.723 46.1238C104.797 46.1938 104.885 46.2496 104.983 46.2881C105.081 46.3265 105.187 46.3468 105.293 46.3477Z" fill="#11345B"/>
<path d="M105.254 7.73218H131.132C132.322 7.73157 133.48 8.07653 134.439 8.71692C135.398 9.35731 136.108 10.2597 136.466 11.293L142.342 25.8224L145.077 27.354C145.419 27.5452 145.702 27.8134 145.898 28.1329C146.094 28.4525 146.197 28.8125 146.196 29.1786V45.4795C146.196 45.7091 146.096 45.9294 145.918 46.0921C145.74 46.2549 145.499 46.3467 145.247 46.3477H132.662C132.838 44.8697 132.671 43.3744 132.17 41.9594C131.67 40.5443 130.848 39.2411 129.759 38.1346C128.669 37.0282 127.335 36.1432 125.845 35.5374C124.355 34.9316 122.742 34.6185 121.11 34.6185C119.478 34.6185 117.865 34.9316 116.375 35.5374C114.885 36.1432 113.551 37.0282 112.462 38.1346C111.372 39.2411 110.55 40.5443 110.05 41.9594C109.549 43.3744 109.382 44.8697 109.558 46.3477H104.468C104.246 46.3477 104.033 46.2674 103.877 46.1244C103.72 45.9814 103.632 45.7875 103.632 45.5854V9.21087C103.632 9.01669 103.673 8.82441 103.755 8.645C103.837 8.4656 103.956 8.30259 104.107 8.16528C104.258 8.02797 104.436 7.91905 104.633 7.84474C104.83 7.77043 105.041 7.73218 105.254 7.73218Z" fill="url(#paint2_linear_252_162)"/>
<path d="M99.6692 10.1707H179.294V20.5533H99.6692V10.1707Z" fill="#FEECCC"/>
<g style="mix-blend-mode:multiply" opacity="0.5">
<path d="M102.675 2.30811H176.269C176.372 2.30811 176.471 2.34529 176.543 2.41147C176.616 2.47765 176.657 2.56742 176.657 2.66102V43.7045C176.66 43.7517 176.652 43.799 176.634 43.8432C176.616 43.8874 176.588 43.9276 176.551 43.961C176.514 43.9944 176.47 44.0203 176.422 44.0369C176.373 44.0536 176.321 44.0606 176.269 44.0574H102.675C102.625 44.058 102.575 44.0491 102.529 44.0314C102.483 44.0136 102.441 43.9873 102.407 43.9542C102.372 43.9211 102.345 43.8818 102.328 43.8388C102.311 43.7959 102.304 43.7501 102.307 43.7045V2.64337C102.312 2.55583 102.352 2.47302 102.42 2.41105C102.488 2.34908 102.579 2.31238 102.675 2.30811ZM102.826 2.78453V43.5669H176.138V2.78453H102.826Z" fill="#00A79D"/>
</g>
<path d="M102.407 2.27637H176.555C176.619 2.27637 176.68 2.29942 176.725 2.34045C176.77 2.38149 176.795 2.43714 176.795 2.49517V43.8528C176.795 43.9108 176.77 43.9665 176.725 44.0075C176.68 44.0485 176.619 44.0716 176.555 44.0716H102.407C102.343 44.0716 102.282 44.0485 102.237 44.0075C102.192 43.9665 102.167 43.9108 102.167 43.8528V2.49517C102.167 2.43714 102.192 2.38149 102.237 2.34045C102.282 2.29942 102.343 2.27637 102.407 2.27637ZM102.43 43.8316H176.532V2.51635H102.43V43.8316Z" fill="#11345B"/>
<path d="M121.114 54.4645C115.432 54.4645 110.826 50.2679 110.826 45.0912C110.826 39.9145 115.432 35.7179 121.114 35.7179C126.795 35.7179 131.401 39.9145 131.401 45.0912C131.401 50.2679 126.795 54.4645 121.114 54.4645Z" fill="#233A4C"/>
<path d="M121.111 53.7869C115.84 53.7869 111.567 49.8937 111.567 45.0912C111.567 40.2887 115.84 36.3955 121.111 36.3955C126.382 36.3955 130.655 40.2887 130.655 45.0912C130.655 49.8937 126.382 53.7869 121.111 53.7869Z" fill="#294259"/>
<path d="M121.113 50.9214C117.579 50.9214 114.714 48.3112 114.714 45.0913C114.714 41.8714 117.579 39.2612 121.113 39.2612C124.647 39.2612 127.512 41.8714 127.512 45.0913C127.512 48.3112 124.647 50.9214 121.113 50.9214Z" fill="#233A4C"/>
<path d="M121.111 50.1274C118.058 50.1274 115.584 47.8727 115.584 45.0913C115.584 42.31 118.058 40.0553 121.111 40.0553C124.164 40.0553 126.638 42.31 126.638 45.0913C126.638 47.8727 124.164 50.1274 121.111 50.1274Z" fill="#FEECCC"/>
<path d="M117.692 41.1389C116.873 42.1074 116.468 43.3146 116.555 44.535C116.641 45.7553 117.212 46.9053 118.161 47.77C119.11 48.6347 120.372 49.1549 121.712 49.2335C123.051 49.3122 124.376 48.9437 125.439 48.1971C124.96 48.7637 124.353 49.2307 123.66 49.5669C122.967 49.903 122.203 50.1007 121.42 50.1467C120.636 50.1927 119.851 50.0859 119.116 49.8336C118.381 49.5812 117.714 49.189 117.159 48.6831C116.604 48.1773 116.173 47.5693 115.896 46.8999C115.619 46.2305 115.502 45.515 115.552 44.8011C115.603 44.0872 115.82 43.3912 116.189 42.7598C116.558 42.1283 117.07 41.5757 117.692 41.1389Z" fill="#D8BF98"/>
<path d="M110.654 40.4399C111.609 38.6541 113.096 37.1491 114.946 36.0969C116.795 35.0447 118.932 34.4878 121.112 34.4899C121.271 34.4899 121.434 34.4899 121.593 34.4899C119.992 34.5514 118.422 34.9139 116.982 35.5546C115.543 36.1953 114.264 37.1004 113.227 38.213C112.189 39.3256 111.415 40.6216 110.954 42.0197C110.493 43.4178 110.354 44.8877 110.546 46.3371H109.558C109.286 44.3126 109.667 42.2599 110.654 40.4294V40.4399Z" fill="#FEECCC"/>
<path opacity="0.25" d="M102.33 33.2865H176.753V33.6288H102.33V33.2865Z" fill="#11345B"/>
<defs>
<linearGradient id="paint0_linear_252_162" x1="201.703" y1="46.3474" x2="201.703" y2="7.73194" gradientUnits="userSpaceOnUse">
<stop stop-color="#00A79D"/>
<stop offset="1" stop-color="#263238"/>
</linearGradient>
<linearGradient id="paint1_linear_252_162" x1="77.7242" y1="41.2788" x2="74.6797" y2="58.4388" gradientUnits="userSpaceOnUse">
<stop stop-color="#00A79D"/>
<stop offset="1"/>
</linearGradient>
<linearGradient id="paint2_linear_252_162" x1="124.916" y1="45.8501" x2="124.916" y2="0.00696285" gradientUnits="userSpaceOnUse">
<stop stop-color="#00A79D"/>
<stop offset="1" stop-color="#263238"/>
</linearGradient>
</defs>
</svg>
