<svg width="293" height="149" viewBox="0 0 293 149" fill="none" xmlns="http://www.w3.org/2000/svg">
<g style="mix-blend-mode:multiply" clip-path="url(#clip0_172_5360)">
<path d="M5.53271 2.21468H33.6624L44.2695 33.8596H46.5778L57.1849 2.21468H85.3146V67.3621H64.5679V34.7932L65.951 26.4103H64.9971L55.7732 52.4731H35.0455L25.8216 26.3718H24.8677L26.2508 34.7547V67.3235H5.53271V2.21468Z" fill="#00A79D"/>
<path d="M130.051 69.2195C125.05 69.2759 120.086 68.3609 115.428 66.5247C111.154 64.8387 107.239 62.3428 103.895 59.1717C100.632 56.0215 98.034 52.2369 96.2593 48.0462C94.4847 43.8555 93.5698 39.3455 93.5698 34.7883C93.5698 30.2311 94.4847 25.7211 96.2593 21.5304C98.034 17.3397 100.632 13.5551 103.895 10.4049C107.239 7.23377 111.154 4.73788 115.428 3.05196C124.848 -0.541003 135.244 -0.541003 144.664 3.05196C148.94 4.73317 152.856 7.2296 156.196 10.4049C159.467 13.5508 162.071 17.334 163.851 21.5253C165.63 25.7166 166.547 30.2287 166.547 34.7883C166.547 39.3479 165.63 43.86 163.851 48.0513C162.071 52.2426 159.467 56.0258 156.196 59.1717C152.856 62.347 148.94 64.8434 144.664 66.5247C140.009 68.3599 135.048 69.2749 130.051 69.2195ZM130.051 50.6156C132.045 50.6313 134.022 50.2349 135.86 49.451C137.614 48.6929 139.198 47.5829 140.515 46.1884C141.867 44.7478 142.932 43.0586 143.653 41.2126C145.192 37.087 145.192 32.5377 143.653 28.4122C142.94 26.5479 141.874 24.8416 140.515 23.3883C139.2 21.9935 137.616 20.8863 135.86 20.1352C132.14 18.5824 127.961 18.5824 124.241 20.1352C122.484 20.8887 120.897 21.9956 119.577 23.3883C118.221 24.8424 117.159 26.5487 116.448 28.4122C114.91 32.5377 114.91 37.087 116.448 41.2126C117.166 43.0581 118.228 44.7474 119.577 46.1884C120.899 47.5811 122.485 48.6907 124.241 49.451C126.079 50.2349 128.056 50.6313 130.051 50.6156Z" fill="#00A79D"/>
<path d="M167.405 2.21468H188.161L199.226 48.7485H203.375L214.44 2.21468H235.206L218.599 67.3621H184.002L167.405 2.21468Z" fill="#00A79D"/>
<path d="M240.729 2.21468H292.381V19.9043H261.476V27.3343H285.923V42.2231H261.476V49.6725H292.381V67.3524H240.729V2.21468Z" fill="#00A79D"/>
<path d="M36.4279 148.929C31.4306 148.984 26.4694 148.069 21.8146 146.234C17.5376 144.554 13.6219 142.057 10.2822 138.881C7.01261 135.735 4.40977 131.952 2.63138 127.762C0.852986 123.572 -0.0639648 119.061 -0.0639648 114.502C-0.0639648 109.944 0.852986 105.433 2.63138 101.242C4.40977 97.052 7.01261 93.2694 10.2822 90.1236C13.6219 86.9471 17.5376 84.4505 21.8146 82.7706C31.2322 79.1643 41.6331 79.1643 51.0507 82.7706C55.3164 84.4562 59.2216 86.9524 62.5544 90.1236C65.8241 93.2694 68.4269 97.052 70.2053 101.242C71.9837 105.433 72.9006 109.944 72.9006 114.502C72.9006 119.061 71.9837 123.572 70.2053 127.762C68.4269 131.952 65.8241 135.735 62.5544 138.881C59.2131 142.055 55.2979 144.551 51.0221 146.234C46.3732 148.066 41.4187 148.981 36.4279 148.929ZM36.4279 130.325C38.4258 130.341 40.4058 129.944 42.2465 129.16C43.9999 128.4 45.5831 127.29 46.9014 125.897C48.2504 124.454 49.3154 122.766 50.0396 120.922C50.8284 118.876 51.2202 116.697 51.1938 114.502C51.2107 112.321 50.8191 110.156 50.0396 108.121C49.3229 106.259 48.2574 104.553 46.9014 103.097C45.5827 101.708 43.9994 100.601 42.2465 99.8443C38.5224 98.2962 34.3428 98.2962 30.6188 99.8443C28.8646 100.599 27.2808 101.706 25.9639 103.097C24.6047 104.551 23.5388 106.257 22.8257 108.121C22.0417 110.155 21.65 112.32 21.6715 114.502C21.6405 116.697 22.0325 118.877 22.8257 120.922C23.5464 122.768 24.6117 124.457 25.9639 125.897C27.2805 127.292 28.8641 128.402 30.6188 129.16C32.4568 129.941 34.4337 130.334 36.4279 130.315V130.325Z" fill="#00A79D"/>
<path d="M111.603 148.929C107.182 149.002 102.782 148.312 98.5921 146.888C95.0058 145.655 91.71 143.689 88.9103 141.114C86.2568 138.623 84.1791 135.574 82.8246 132.182C81.3609 128.483 80.6317 124.529 80.6784 120.546V81.9333H101.425V119.622C101.357 121.052 101.576 122.481 102.067 123.824C102.559 125.166 103.314 126.396 104.287 127.437C106.279 129.308 108.9 130.348 111.622 130.348C114.344 130.348 116.965 129.308 118.957 127.437C119.913 126.395 120.654 125.172 121.137 123.839C121.62 122.506 121.836 121.089 121.771 119.67V81.9333H142.518V120.431C142.574 124.404 141.871 128.352 140.448 132.057C139.111 135.463 137.046 138.529 134.4 141.037C131.602 143.65 128.286 145.634 124.671 146.859C120.463 148.293 116.044 148.993 111.603 148.929Z" fill="#00A79D"/>
<path d="M168.33 100.537H148.499V81.9333H208.908V100.537H189.077V147.071H168.33V100.537Z" fill="#00A79D"/>
<path d="M254.455 91.6443L224.408 101.365L240.348 111.952C233.012 120.681 224.494 130.758 218.857 137.235L239.022 148.929L238.793 148.717L260.608 125.426L277.625 136.744L281.059 109.334L284.493 81.9333L254.455 91.6443Z" fill="#00A79D"/>
</g>
<defs>
<clipPath id="clip0_172_5360">
<rect width="292.381" height="148.571" fill="white" transform="translate(0 0.357117)"/>
</clipPath>
</defs>
</svg>
